<svg width="23" height="23" viewBox="0 0 23 23" fill="none" xmlns="http://www.w3.org/2000/svg">
<path d="M21.343 11.8205C21.3451 12.1025 21.2594 12.3782 21.0977 12.6092C20.936 12.8402 20.7063 13.0151 20.4406 13.1096L14.9887 15.0921L13.007 20.5432C12.9093 20.8063 12.7335 21.0332 12.503 21.1935C12.2726 21.3538 11.9986 21.4397 11.718 21.4397C11.4373 21.4397 11.1633 21.3538 10.9329 21.1935C10.7024 21.0332 10.5266 20.8063 10.4289 20.5432L8.44632 15.0861L2.99531 13.1096C2.73216 13.0119 2.50521 12.836 2.34495 12.6056C2.18469 12.3752 2.09879 12.1012 2.09879 11.8205C2.09879 11.5398 2.18469 11.2659 2.34495 11.0354C2.50521 10.805 2.73216 10.6291 2.99531 10.5314L8.45234 8.54886L10.4289 3.09784C10.5266 2.8347 10.7024 2.60775 10.9329 2.44749C11.1633 2.28723 11.4373 2.20132 11.718 2.20132C11.9986 2.20132 12.2726 2.28723 12.503 2.44749C12.7335 2.60775 12.9093 2.8347 13.007 3.09784L14.9896 8.55488L20.4406 10.5314C20.7063 10.6259 20.936 10.8008 21.0977 11.0318C21.2594 11.2628 21.3451 11.5385 21.343 11.8205Z" fill="white"/>
</svg>
