<svg width="25" height="25" viewBox="0 0 25 25" fill="none" xmlns="http://www.w3.org/2000/svg">
<g clip-path="url(#clip0_1388_849)">
<path d="M23.2494 6.56563C23.1306 6.09104 22.8887 5.6562 22.5481 5.30504C22.2074 4.95387 21.7802 4.69881 21.3094 4.56563C19.5894 4.14563 12.7094 4.14563 12.7094 4.14563C12.7094 4.14563 5.82943 4.14563 4.10943 4.60563C3.63867 4.73881 3.2114 4.99387 2.87077 5.34504C2.53014 5.6962 2.28821 6.13104 2.16943 6.60563C1.85464 8.35119 1.70066 10.1219 1.70943 11.8956C1.69821 13.6827 1.85219 15.4669 2.16943 17.2256C2.30039 17.6855 2.54773 18.1038 2.88757 18.4401C3.22741 18.7764 3.64825 19.0194 4.10943 19.1456C5.82943 19.6056 12.7094 19.6056 12.7094 19.6056C12.7094 19.6056 19.5894 19.6056 21.3094 19.1456C21.7802 19.0124 22.2074 18.7574 22.5481 18.4062C22.8887 18.0551 23.1306 17.6202 23.2494 17.1456C23.5618 15.4132 23.7158 13.656 23.7094 11.8956C23.7206 10.1086 23.5667 8.32433 23.2494 6.56563Z" stroke="white" stroke-width="2" stroke-linecap="round" stroke-linejoin="round"/>
<path d="M10.4594 15.1656L16.2094 11.8956L10.4594 8.62561V15.1656Z" stroke="white" stroke-width="2" stroke-linecap="round" stroke-linejoin="round"/>
</g>
<defs>
<clipPath id="clip0_1388_849">
<rect width="24" height="24" fill="white" transform="translate(0.709427 0.14563)"/>
</clipPath>
</defs>
</svg>
